<svg>
  <symbol xmlns="http://www.w3.org/2000/svg" version="1.1" xmlns:xlink="http://www.w3.org/1999/xlink" xmlnsSvgjs="http://svgjs.com/svgjs" x="0" y="0" xml:space="preserve" viewBox="0 0 31.665 31.665" id="icon-codepen">
    <g>
      <g xmlns="http://www.w3.org/2000/svg">
        <path d="M16.878,0.415c-0.854-0.565-1.968-0.552-2.809,0.034L1.485,9.214c-0.671,0.468-1.071,1.233-1.071,2.052v9.444   c0,0.84,0.421,1.623,1.122,2.086l12.79,8.455c0.836,0.553,1.922,0.553,2.758,0l13.044-8.618c0.7-0.463,1.122-1.246,1.122-2.086   v-9.279c0-0.839-0.421-1.622-1.121-2.085L16.878,0.415z M26.621,10.645l-4.821,3.237l-4.521-3.288L17.25,4.127L26.621,10.645z    M13.979,4.133v6.329l-4.633,3.24l-4.621-3.099L13.979,4.133z M3.458,13.722l2.991,2.004l-2.991,2.093V13.722z M14.058,27.215   l-9.331-6.258l4.661-3.258l4.67,3.133V27.215z M12.286,15.674l3.021-2.113l3.519,2.313l-3.119,2.095L12.286,15.674z M17.354,27.215   V20.83l4.463-2.991l4.805,3.159L17.354,27.215z M27.954,17.927l-3.168-2.082l3.168-2.125V17.927z" fill="#000000" data-original="#000000"></path>
      </g>
    </g>
  </symbol>
  <symbol xmlns="http://www.w3.org/2000/svg" version="1.1" xmlns:xlink="http://www.w3.org/1999/xlink" xmlnsSvgjs="http://svgjs.com/svgjs" x="0" y="0" xml:space="preserve" viewBox="0 0 24 24" id="icon-github">
    <g>
      <path xmlns="http://www.w3.org/2000/svg" d="m12 .5c-6.63 0-12 5.28-12 11.792 0 5.211 3.438 9.63 8.205 11.188.6.111.82-.254.82-.567 0-.28-.01-1.022-.015-2.005-3.338.711-4.042-1.582-4.042-1.582-.546-1.361-1.335-1.725-1.335-1.725-1.087-.731.084-.716.084-.716 1.205.082 1.838 1.215 1.838 1.215 1.07 1.803 2.809 1.282 3.495.981.108-.763.417-1.282.76-1.577-2.665-.295-5.466-1.309-5.466-5.827 0-1.287.465-2.339 1.235-3.164-.135-.298-.54-1.497.105-3.121 0 0 1.005-.316 3.3 1.209.96-.262 1.98-.392 3-.398 1.02.006 2.04.136 3 .398 2.28-1.525 3.285-1.209 3.285-1.209.645 1.624.24 2.823.12 3.121.765.825 1.23 1.877 1.23 3.164 0 4.53-2.805 5.527-5.475 5.817.42.354.81 1.077.81 2.182 0 1.578-.015 2.846-.015 3.229 0 .309.21.678.825.56 4.801-1.548 8.236-5.97 8.236-11.173 0-6.512-5.373-11.792-12-11.792z" fill="#000000" data-original="#000000"></path>
    </g>
  </symbol>
  <symbol xmlns="http://www.w3.org/2000/svg" version="1.1" xmlns:xlink="http://www.w3.org/1999/xlink" xmlnsSvgjs="http://svgjs.com/svgjs" x="0" y="0" xml:space="preserve" viewBox="0 0 512 512" id="icon-vk">
    <g>
      <g xmlns="http://www.w3.org/2000/svg">
        <path d="m0 245.333c0-115.651 0-173.477 35.928-209.405s93.754-35.928 209.405-35.928h21.333c115.651 0 173.477 0 209.405 35.928 35.929 35.928 35.929 93.754 35.929 209.405v21.333c0 115.651 0 173.477-35.929 209.405-35.927 35.929-93.753 35.929-209.404 35.929h-21.333c-115.651 0-173.477 0-209.405-35.928-35.929-35.928-35.929-93.754-35.929-209.405z" fill="#2787f5" data-original="#2787f5"></path>
        <path clip-rule="evenodd" d="m138.676 160h-37.342c-10.669 0-12.803 5.022-12.803 10.558 0 9.889 12.66 58.933 58.946 123.798 30.858 44.298 74.333 68.31 113.894 68.31 23.737 0 26.673-5.333 26.673-14.52v-33.48c0-10.667 2.249-12.796 9.764-12.796 5.539 0 15.034 2.769 37.188 24.127 25.319 25.313 29.493 36.669 43.734 36.669h37.342c10.67 0 16.004-5.333 12.927-15.858-3.368-10.49-15.456-25.71-31.497-43.75-8.704-10.284-21.759-21.358-25.715-26.896-5.538-7.119-3.956-10.284 0-16.611 0 0 45.496-64.075 50.243-85.827 2.373-7.911 0-13.724-11.293-13.724h-37.342c-9.494 0-13.872 5.022-16.246 10.558 0 0-18.989 46.276-45.89 76.336-8.704 8.701-12.66 11.47-17.408 11.47-2.373 0-5.809-2.769-5.809-10.678v-73.962c0-9.493-2.755-13.724-10.669-13.724h-58.68c-5.933 0-9.502 4.405-9.502 8.581 0 8.998 13.451 11.074 14.837 36.387v54.978c0 12.053-2.178 14.239-6.925 14.239-12.659 0-43.453-46.483-61.716-99.672-3.577-10.337-7.167-14.513-16.711-14.513z" fill="#ffffff" fill-rule="evenodd" data-original="#ffffff"></path>
      </g>
    </g>
  </symbol>
</svg>